<svg xmlns="http://www.w3.org/2000/svg" viewBox="0 0 240 48" fill="none">
  <rect width="48" height="48" rx="16" fill="#4C8DFF" />
  <path
    d="M31.4 16.4c-1.6-1.5-4-2.4-7-2.4-5.3 0-8.8 2.6-8.8 6.5 0 2.7 1.8 4.4 5.8 5.4l2.8.7c2.1.5 3 .9 3 1.9 0 1.3-1.5 2.1-3.8 2.1-2.3 0-4.5-.8-6.2-2.4l-3 3.2c2.1 2.2 5.3 3.4 9.1 3.4 5.7 0 9.3-2.6 9.3-6.8 0-3.3-2.1-5-6.5-6l-2.4-.6c-1.8-.4-2.7-.8-2.7-1.8 0-1.2 1.2-1.8 3.2-1.8 2.1 0 3.9.6 5.3 1.8l2.9-3.2Z"
    fill="white"
  />
  <text
    x="64"
    y="30"
    fill="#F8FBFF"
    font-family="Sora, Arial, sans-serif"
    font-size="24"
    font-weight="700"
    letter-spacing="2"
  >
    SKYNET
  </text>
</svg>
