<svg xmlns="http://www.w3.org/2000/svg" width="1200" height="630" viewBox="0 0 1200 630" fill="none">
  <rect width="1200" height="630" fill="#F6F8FB" />
  <circle cx="188" cy="160" r="180" fill="#D8E7FF" />
  <circle cx="1040" cy="110" r="130" fill="#BFD8FF" />
  <circle cx="1020" cy="560" r="170" fill="#E9F2FF" />
  <rect x="70" y="72" width="220" height="56" rx="18" fill="#1F6FFF" />
  <path
    d="M106.4 109.4c-1.6-1.5-4-2.4-7-2.4-5.3 0-8.8 2.6-8.8 6.5 0 2.7 1.8 4.4 5.8 5.4l2.8.7c2.1.5 3 .9 3 1.9 0 1.3-1.5 2.1-3.8 2.1-2.3 0-4.5-.8-6.2-2.4l-3 3.2c2.1 2.2 5.3 3.4 9.1 3.4 5.7 0 9.3-2.6 9.3-6.8 0-3.3-2.1-5-6.5-6l-2.4-.6c-1.8-.4-2.7-.8-2.7-1.8 0-1.2 1.2-1.8 3.2-1.8 2.1 0 3.9.6 5.3 1.8l2.9-3.2Z"
    fill="white"
  />
  <text x="132" y="108" fill="white" font-family="Sora, Arial, sans-serif" font-size="28" font-weight="700" letter-spacing="3">
    SKYNET
  </text>
  <text x="70" y="230" fill="#101828" font-family="Sora, Arial, sans-serif" font-size="78" font-weight="700">
    Services Company Template
  </text>
  <text x="70" y="310" fill="#526174" font-family="Manrope, Arial, sans-serif" font-size="34">
    Built for speed, structured content, SEO, and AEO.
  </text>
  <text x="70" y="360" fill="#526174" font-family="Manrope, Arial, sans-serif" font-size="34">
    Astro + Tailwind + clean editing surfaces for teams and AI IDEs.
  </text>
  <rect x="70" y="438" width="256" height="72" rx="36" fill="#101828"/>
  <text x="118" y="484" fill="white" font-family="Manrope, Arial, sans-serif" font-size="26" font-weight="700">
    skynet.example
  </text>
</svg>
