<svg xmlns="http://www.w3.org/2000/svg" width="1280" height="720" viewBox="0 0 1280 720" fill="none">
  <rect width="1280" height="720" rx="32" fill="#F6F8FB" />
  <rect x="36" y="28" width="1208" height="72" rx="24" fill="#FFFFFF" stroke="#DBE5F3" />
  <rect x="70" y="46" width="160" height="36" rx="12" fill="#1F6FFF" />
  <text x="120" y="69" text-anchor="middle" fill="#FFFFFF" font-family="Sora, Arial, sans-serif" font-size="20" font-weight="700" letter-spacing="2">
    SKYNET
  </text>
  <rect x="104" y="156" width="424" height="24" rx="12" fill="#E4EEFF" />
  <text x="104" y="252" fill="#101828" font-family="Sora, Arial, sans-serif" font-size="72" font-weight="700">
    Launch a service
  </text>
  <text x="104" y="334" fill="#101828" font-family="Sora, Arial, sans-serif" font-size="72" font-weight="700">
    company site built for
  </text>
  <text x="104" y="416" fill="#1F6FFF" font-family="Sora, Arial, sans-serif" font-size="72" font-weight="700">
    speed, SEO, and AEO.
  </text>
  <text x="104" y="486" fill="#526174" font-family="Manrope, Arial, sans-serif" font-size="28">
    Static-first Astro template with starter presets, AI IDE docs,
  </text>
  <text x="104" y="526" fill="#526174" font-family="Manrope, Arial, sans-serif" font-size="28">
    structured content, and Vercel-ready deployment.
  </text>
  <rect x="104" y="580" width="208" height="64" rx="32" fill="#101828" />
  <text x="208" y="620" text-anchor="middle" fill="#FFFFFF" font-family="Manrope, Arial, sans-serif" font-size="22" font-weight="700">
    Start a project
  </text>
  <rect x="330" y="580" width="232" height="64" rx="32" fill="#EDF3FB" stroke="#DBE5F3" />
  <text x="446" y="620" text-anchor="middle" fill="#1F6FFF" font-family="Manrope, Arial, sans-serif" font-size="22" font-weight="700">
    Explore services
  </text>
  <rect x="748" y="148" width="420" height="472" rx="32" fill="#FFFFFF" stroke="#DBE5F3" />
  <rect x="780" y="184" width="188" height="18" rx="9" fill="#E4EEFF" />
  <rect x="780" y="224" width="320" height="50" rx="16" fill="#F6F8FB" />
  <rect x="780" y="296" width="320" height="50" rx="16" fill="#F6F8FB" />
  <rect x="780" y="368" width="320" height="50" rx="16" fill="#F6F8FB" />
  <rect x="780" y="440" width="320" height="100" rx="24" fill="#F6F8FB" />
  <rect x="780" y="564" width="176" height="44" rx="22" fill="#1F6FFF" />
  <text x="868" y="592" text-anchor="middle" fill="#FFFFFF" font-family="Manrope, Arial, sans-serif" font-size="18" font-weight="700">
    REST form ready
  </text>
</svg>
